<?xml version="1.0" encoding="utf-8"?>
<!-- Generator: Adobe Illustrator 17.0.0, SVG Export Plug-In . SVG Version: 6.00 Build 0)  -->
<!DOCTYPE svg PUBLIC "-//W3C//DTD SVG 1.1//EN" "http://www.w3.org/Graphics/SVG/1.1/DTD/svg11.dtd">
<svg version="1.1" id="Layer_1" xmlns="http://www.w3.org/2000/svg" xmlns:xlink="http://www.w3.org/1999/xlink" x="0px" y="0px"
	 width="170.333px" height="165px" viewBox="0 0 170.333 165" enable-background="new 0 0 170.333 165" xml:space="preserve">
<g>
	<defs>
		<rect id="SVGID_1_" width="171" height="165"/>
	</defs>
	<clipPath id="SVGID_2_">
		<use xlink:href="#SVGID_1_"  overflow="visible"/>
	</clipPath>
	<g opacity="0.8" clip-path="url(#SVGID_2_)">
		<g>
			<circle opacity="0.6" fill="#71528F" cx="112.995" cy="25.185" r="57.364"/>
			<circle opacity="0.5" fill="#67A416" cx="55.605" cy="-3.578" r="57.364"/>
			<path opacity="0.6" fill="#F7AB27" d="M156.771,100.818c0.863,31.669-24.113,58.041-55.779,58.902
				c-31.673,0.863-58.044-24.113-58.906-55.781c-0.862-31.67,24.11-58.043,55.783-58.905
				C129.536,44.172,155.909,69.146,156.771,100.818z"/>
			<circle opacity="0.5" fill="#FD4078" cx="29.324" cy="107.823" r="57.365"/>
			<circle opacity="0.6" fill="#208498" cx="0.347" cy="45.942" r="57.364"/>
		</g>
		<line fill="none" stroke="#2AABE2" stroke-miterlimit="10" x1="201.747" y1="-22.526" x2="204.834" y2="-19.44"/>
		<line fill="none" stroke="#2AABE2" stroke-miterlimit="10" x1="204.834" y1="-19.44" x2="211.279" y2="-25.885"/>
	</g>
	<g display="none" opacity="0.8" clip-path="url(#SVGID_2_)">
		<g display="inline">
			<circle opacity="0.6" fill="#71528F" cx="303.28" cy="84.399" r="14.87"/>
			<circle opacity="0.5" fill="#67A416" cx="288.403" cy="76.943" r="14.87"/>
			<circle opacity="0.6" fill="#F7AB27" cx="299.763" cy="104.409" r="14.87"/>
			<circle opacity="0.5" fill="#FD4078" cx="281.591" cy="105.82" r="14.87"/>
			<circle opacity="0.6" fill="#208498" cx="274.079" cy="89.779" r="14.87"/>
		</g>
		<line display="inline" fill="none" stroke="#2AABE2" stroke-miterlimit="10" x1="326.286" y1="72.031" x2="327.086" y2="72.831"/>
		<line display="inline" fill="none" stroke="#2AABE2" stroke-miterlimit="10" x1="327.086" y1="72.831" x2="328.757" y2="71.16"/>
	</g>
</g>
</svg>
